<?xml version="1.0" encoding="utf-8"?>
<!-- Generator: Adobe Illustrator 24.0.1, SVG Export Plug-In . SVG Version: 6.00 Build 0)  -->
<svg version="1.1" id="Grupo_18" xmlns="http://www.w3.org/2000/svg" xmlns:xlink="http://www.w3.org/1999/xlink" x="0px" y="0px"
	 viewBox="0 0 109.3 54" style="enable-background:new 0 0 109.3 54;" xml:space="preserve">
<style type="text/css">
	.st0{fill:#FAFCFC;}
	.st1{fill:#F9DC1C;}
</style>
<g id="Grupo_3" transform="translate(194.504 14.024)">
	<g id="Bet365_Logo">
		<path id="Exclusão_1" class="st0" d="M-182.2,26c-1.1,0-2.2-0.3-3.1-0.9c-0.9-0.7-1.6-1.7-2-2.8c0,0.8,0,1.5,0,2.3
			c0,0.3,0,0.6,0,1h-7.1V0h7.7c0,1.8,0,3.5,0,5.3c0,1.6,0,3.2,0,4.8c0.7-1.1,1.7-1.9,2.9-2.4c0.7-0.2,1.3-0.3,2-0.3
			c1.7,0,3.3,0.6,4.5,1.9c1.5,1.9,2.3,4.2,2.2,6.6c0,1.2,0,2.4-0.2,3.5c-0.2,1.2-0.6,2.3-1.1,3.3c-0.8,1.5-2.2,2.6-3.8,3
			C-181,25.9-181.6,26-182.2,26z M-185.1,12.7c-0.2,0-0.3,0-0.5,0.1c-0.6,0.2-1.1,0.7-1.2,1.3c-0.2,0.9-0.3,1.8-0.3,2.7v0
			c-0.1,1,0.1,1.9,0.6,2.8c0.3,0.4,0.8,0.7,1.3,0.7c0.5,0,1-0.2,1.3-0.7c0.5-0.9,0.7-2,0.7-3v-0.2c0.1-1-0.1-1.9-0.5-2.8
			C-183.9,13-184.5,12.7-185.1,12.7L-185.1,12.7z"/>
		<path id="Caminho_1183" class="st0" d="M-152.4,3.7c2.6-0.8,5.1-1.8,7.7-2.6c0,2.2,0,4.5,0,6.7h3.5c0,1.7,0,3.4,0,5.1
			c-1.2,0-2.3,0-3.5,0c0,1.8,0,3.5,0,5.3c0,0.8,0.4,1.6,1.1,2c0.8,0.1,1.6,0.1,2.4-0.2c0,1.7,0,3.4,0,5.1c-2.1,0.8-4.4,1-6.7,0.8
			c-1.4-0.2-2.6-0.9-3.4-2.1c-0.8-1.3-1.1-2.8-1.1-4.3c0-2.2,0-4.4,0-6.6c-0.9,0-1.8,0-2.7,0c0-1.7,0-3.4,0-5.1c0.9,0,1.8,0,2.7,0
			C-152.4,6.5-152.4,5.1-152.4,3.7L-152.4,3.7z"/>
		<path id="Caminho_1184" class="st1" d="M-139.4,2.4c2.5-0.8,5.2-1.1,7.8-0.9c2.4,0,4.8,0.9,6.7,2.4c2.4,2.1,2.5,6.4,0,8.4
			c-0.7,0.5-1.4,0.9-2.2,1.2c1.2,0.3,2.3,1,3.1,1.9c2.1,2.7,1.5,6.6-1.2,8.6c-0.3,0.2-0.7,0.5-1,0.6c-2.8,1.5-6,1.5-9.1,1.2
			c-1.4-0.1-2.8-0.4-4.2-0.8c-0.1-1.8,0-3.7,0-5.5c2.4,0.9,5,1.2,7.5,0.7c1.7-0.4,1.7-3,0.3-3.7c-1.6-0.8-3.4-0.5-5.1-0.3
			c0-1.7,0-3.5,0-5.2c1.3,0.1,2.6,0.1,3.9-0.1c0.8-0.1,1.6-0.6,1.9-1.4c0.2-0.7,0-1.4-0.4-2c-0.6-0.6-1.3-0.9-2.1-0.9
			c-1.9-0.1-3.8,0.2-5.6,0.9C-139.4,5.9-139.4,4.1-139.4,2.4L-139.4,2.4z"/>
		<path id="Exclusão_3" class="st1" d="M-111.3,26c-0.6,0-1.1,0-1.7-0.1c-2.5-0.3-4.7-1.6-6.2-3.5c-0.9-1.1-1.5-2.3-2-3.6
			c-0.4-1.3-0.6-2.7-0.7-4.1c-0.1-1.7,0.1-3.4,0.5-5c0.4-1.6,1.2-3.2,2.3-4.5c0.9-1.1,2-2,3.3-2.6c1.3-0.6,2.7-1,4.1-1.1
			c0.7,0,1.4,0,2,0c2,0,3.9,0.2,5.8,0.7c0,1,0,2.1,0,3.1v0c0,0.8,0,1.6,0,2.4c-1.6-0.5-3.4-0.8-5.1-0.8c-0.4,0-0.9,0-1.3,0.1
			c-1.3,0.1-2.6,0.9-3.3,2c-0.4,0.8-0.6,1.7-0.6,2.6c1.4-1,3.1-1.5,4.8-1.4c0.2,0,0.5,0,0.8,0c2.5,0.2,4.7,1.6,5.8,3.8
			c0.8,1.6,1,3.5,0.7,5.3c-0.3,1.9-1.3,3.6-2.8,4.8c-0.9,0.7-1.9,1.2-3,1.5C-109,25.8-110.1,26-111.3,26L-111.3,26z M-111.6,14.5
			c-0.3,0-0.6,0.1-0.9,0.2c-0.8,0.3-1.4,1.1-1.5,2c-0.3,1.2-0.1,2.5,0.6,3.5c0.4,0.5,1.1,0.8,1.8,0.8c0.8,0,1.6-0.4,2-1.1
			c0.4-0.6,0.6-1.3,0.6-2.1c0-0.7-0.2-1.5-0.5-2.1C-109.9,14.9-110.7,14.5-111.6,14.5L-111.6,14.5z"/>
		<path id="Caminho_1186" class="st1" d="M-100.3,1.8c5,0,10,0,15,0c0,1.8,0,3.6,0,5.5c-2.7,0-5.4,0-8,0c0,1.2,0,2.4,0,3.6
			c1.5-0.2,3.1-0.1,4.6,0.3c2.1,0.8,3.7,2.5,4.2,4.7c0.5,2.1,0.3,4.3-0.7,6.2c-1.1,1.7-2.8,2.9-4.8,3.3c-3.5,0.7-7.1,0.5-10.5-0.5
			c-0.1-1.8,0-3.6,0-5.4c2.2,0.5,4.5,1.1,6.7,0.4c1.8-0.6,2.1-3.3,0.7-4.4c-0.9-0.6-2-0.9-3-0.9c-1.2,0-2.4,0.1-3.5,0.4
			c-0.2,0.1-0.5,0.2-0.7,0.3c0.1-0.2,0.1-0.4,0.1-0.6C-100.3,10.5-100.3,6.2-100.3,1.8L-100.3,1.8z"/>
		<path id="Exclusão_2" class="st0" d="M-163.9,26c-2.5,0.2-5-0.6-7.1-2.2c-0.9-0.8-1.6-1.8-2.1-2.9c-0.4-1.1-0.7-2.3-0.8-3.6
			c-0.1-1.3,0-2.6,0.3-3.9c0.3-1.3,0.9-2.5,1.9-3.4c1-0.9,2.2-1.6,3.5-2c1.3-0.4,2.6-0.6,4-0.5h0.1c0.1,0,0.2,0,0.3,0
			c2-0.1,3.9,0.6,5.4,1.9c1.5,1.5,2.4,3.5,2.6,5.7c0.1,1.1,0.2,2.3,0.2,3.5v0.3h-10.7c0,0.6,0.2,1.3,0.7,1.7c0.9,0.7,2,1,3.2,1
			c0.1,0,0.3,0,0.4,0c1.8,0.1,3.7-0.3,5.3-1.1c0,0.8,0,1.6,0,2.3v0c0,0.7,0,1.5,0,2.2c-2.2,0.7-4.5,1.1-6.8,1
			C-163.7,26-163.8,26-163.9,26z M-164.2,11.5c-0.6,0-1.1,0.2-1.4,0.7c-0.5,0.9-0.7,1.8-0.7,2.8h4c0.1-1-0.1-2-0.6-2.8
			C-163.2,11.8-163.7,11.5-164.2,11.5L-164.2,11.5z"/>
	</g>
</g>
</svg>
